# This file uses centimeters as units for non-parametric coordinates.

mtllib body.mtl
g default
v 19.947670 -21.254850 -6.484281
v 16.968502 -21.254850 -12.333835
v 12.328337 -21.254850 -16.976067
v 6.481390 -21.254850 -19.956562
v 0.000000 -21.254850 -20.983570
v -6.481390 -21.254850 -19.956562
v -12.328335 -21.254850 -16.976064
v -16.968496 -21.254850 -12.333831
v -19.947663 -21.254850 -6.484278
v -20.974213 -21.254850 0.000000
v -19.947663 -21.254850 6.484278
v -16.968494 -21.254850 12.333830
v -12.328333 -21.254850 16.976059
v -6.481132 -21.255669 19.957204
v 0.038682 -21.459414 21.157464
v 6.567122 -21.671467 20.307682
v 12.347109 -21.331320 17.039248
v 16.968545 -21.255022 12.333963
v 19.947658 -21.254850 6.484277
v 20.974208 -21.254850 0.000000
v 19.947670 49.069855 -6.484281
v 16.968502 49.069855 -12.333835
v 12.328337 49.069855 -16.976067
v 6.484601 49.173244 -20.017419
v 0.000000 49.069855 -20.983570
v -6.485948 49.153763 -19.999253
v -12.328316 49.070477 -16.976429
v -16.968496 49.069855 -12.333831
v -19.947663 49.069855 -6.484278
v -20.974213 49.069855 0.000000
v -19.947663 49.069855 6.484278
v -16.980970 49.112816 12.365530
v -12.430813 49.475792 17.261165
v -6.776409 49.991783 20.636263
v -0.206533 49.559765 21.348558
v 6.481338 49.070141 19.956796
v 12.328329 49.069855 16.976058
v 16.968491 49.069855 12.333829
v 19.947658 49.069855 6.484277
v 20.974208 49.069855 0.000000
v 0.000000 -21.254850 0.000000
v -0.000003 49.242439 0.000054
vt 0.375000 0.312500
vt 0.387500 0.312500
vt 0.387500 0.688440
vt 0.375000 0.688440
vt 0.400000 0.312500
vt 0.400000 0.688440
vt 0.412500 0.312500
vt 0.412500 0.688440
vt 0.425000 0.312500
vt 0.425000 0.688440
vt 0.437500 0.312500
vt 0.437500 0.688440
vt 0.450000 0.312500
vt 0.450000 0.688440
vt 0.462500 0.312500
vt 0.462500 0.688440
vt 0.475000 0.312500
vt 0.475000 0.688440
vt 0.487500 0.312500
vt 0.487500 0.688440
vt 0.500000 0.312500
vt 0.500000 0.688440
vt 0.512500 0.312500
vt 0.512500 0.688440
vt 0.525000 0.312500
vt 0.525000 0.688440
vt 0.537500 0.312500
vt 0.537500 0.688440
vt 0.550000 0.312500
vt 0.550000 0.688440
vt 0.562500 0.312500
vt 0.562500 0.688440
vt 0.575000 0.312500
vt 0.575000 0.688440
vt 0.587500 0.312500
vt 0.587500 0.688440
vt 0.600000 0.312500
vt 0.600000 0.688440
vt 0.612500 0.312500
vt 0.612500 0.688440
vt 0.625000 0.312500
vt 0.625000 0.688440
vt 0.626409 0.064408
vt 0.648603 0.107966
vt 0.500000 0.150000
vt 0.591842 0.029841
vt 0.548284 0.007647
vt 0.500000 -0.000000
vt 0.451716 0.007647
vt 0.408159 0.029841
vt 0.373591 0.064409
vt 0.351397 0.107966
vt 0.343750 0.156250
vt 0.351397 0.204534
vt 0.373591 0.248091
vt 0.408159 0.282659
vt 0.451716 0.304853
vt 0.500000 0.312500
vt 0.548284 0.304853
vt 0.591841 0.282659
vt 0.626409 0.248091
vt 0.648603 0.204534
vt 0.656250 0.156250
vt 0.648603 0.892034
vt 0.626409 0.935591
vt 0.500000 0.837500
vt 0.591841 0.970159
vt 0.548284 0.992353
vt 0.500000 1.000000
vt 0.451716 0.992353
vt 0.408159 0.970159
vt 0.373591 0.935591
vt 0.351397 0.892034
vt 0.343750 0.843750
vt 0.351397 0.795466
vt 0.373591 0.751909
vt 0.408159 0.717341
vt 0.451716 0.695147
vt 0.500000 0.687500
vt 0.548284 0.695147
vt 0.591842 0.717341
vt 0.626409 0.751908
vt 0.648603 0.795466
vt 0.656250 0.843750
vn 0.951097 0.000000 -0.308891
vn 0.809142 0.000000 -0.587614
vn 0.809142 0.000000 -0.587614
vn 0.951097 0.000000 -0.308891
vn 0.809142 0.000000 -0.587614
vn 0.589501 -0.000200 -0.807768
vn 0.589125 -0.000200 -0.808042
vn 0.809142 0.000000 -0.587614
vn 0.589501 -0.000200 -0.807768
vn 0.309178 -0.000418 -0.951004
vn 0.309107 -0.000418 -0.951027
vn 0.589125 -0.000200 -0.808042
vn 0.309178 -0.000418 -0.951004
vn -0.000689 -0.000372 -1.000000
vn -0.000602 -0.000372 -1.000000
vn 0.309107 -0.000418 -0.951027
vn -0.000689 -0.000372 -1.000000
vn -0.309150 -0.000300 -0.951013
vn -0.309113 -0.000300 -0.951025
vn -0.000602 -0.000372 -1.000000
vn -0.309150 -0.000300 -0.951013
vn -0.589078 -0.000146 -0.808076
vn -0.588771 -0.000147 -0.808300
vn -0.309113 -0.000300 -0.951025
vn -0.589078 -0.000146 -0.808076
vn -0.809146 -0.000001 -0.587608
vn -0.809145 -0.000001 -0.587610
vn -0.588771 -0.000147 -0.808300
vn -0.809146 -0.000001 -0.587608
vn -0.951097 0.000000 -0.308892
vn -0.951097 0.000000 -0.308892
vn -0.809145 -0.000001 -0.587610
vn -0.951097 0.000000 -0.308892
vn -1.000000 0.000000 0.000000
vn -1.000000 0.000000 0.000000
vn -0.951097 0.000000 -0.308892
vn -1.000000 0.000000 0.000000
vn -0.951347 -0.000092 0.308122
vn -0.951287 -0.000092 0.308307
vn -1.000000 0.000000 0.000000
vn -0.951347 -0.000092 0.308122
vn -0.814624 -0.001181 0.579988
vn -0.813578 -0.001193 0.581454
vn -0.951287 -0.000092 0.308307
vn -0.814624 -0.001181 0.579988
vn -0.608796 -0.004770 0.793313
vn -0.605465 -0.004842 0.795857
vn -0.813578 -0.001193 0.581454
vn -0.608796 -0.004770 0.793313
vn -0.317398 -0.007060 0.948266
vn -0.318287 -0.007062 0.947968
vn -0.605465 -0.004842 0.795857
vn -0.317398 -0.007060 0.948266
vn 0.014558 -0.002498 0.999891
vn 0.007393 -0.002684 0.999969
vn -0.318287 -0.007062 0.947968
vn 0.014558 -0.002498 0.999891
vn 0.322435 0.002238 0.946589
vn 0.321073 0.002231 0.947052
vn 0.007393 -0.002684 0.999969
vn 0.322435 0.002238 0.946589
vn 0.596617 0.001711 0.802525
vn 0.598117 0.001695 0.801407
vn 0.321073 0.002231 0.947052
vn 0.596617 0.001711 0.802525
vn 0.810097 0.000209 0.586296
vn 0.810298 0.000209 0.586018
vn 0.598117 0.001695 0.801407
vn 0.810097 0.000209 0.586296
vn 0.951098 0.000001 0.308890
vn 0.951098 0.000001 0.308890
vn 0.810298 0.000209 0.586018
vn 0.951098 0.000001 0.308890
vn 1.000000 0.000000 0.000001
vn 1.000000 0.000000 0.000001
vn 0.951098 0.000001 0.308890
vn 1.000000 0.000000 0.000001
vn 0.951097 0.000000 -0.308891
vn 0.951097 0.000000 -0.308891
vn 1.000000 0.000000 0.000001
vn 0.000000 -1.000000 0.000000
vn 0.000000 -1.000000 0.000000
vn -0.000815 -0.999995 -0.003155
vn 0.000000 -1.000000 0.000000
vn 0.000000 -1.000000 0.000000
vn -0.000815 -0.999995 -0.003155
vn 0.000000 -1.000000 0.000000
vn 0.000000 -1.000000 0.000000
vn -0.000815 -0.999995 -0.003155
vn 0.000000 -1.000000 0.000000
vn 0.000000 -1.000000 0.000000
vn -0.000815 -0.999995 -0.003155
vn 0.000000 -1.000000 0.000000
vn 0.000000 -1.000000 0.000000
vn -0.000815 -0.999995 -0.003155
vn 0.000000 -1.000000 0.000000
vn 0.000000 -1.000000 0.000000
vn -0.000815 -0.999995 -0.003155
vn 0.000000 -1.000000 0.000000
vn 0.000000 -1.000000 0.000000
vn -0.000815 -0.999995 -0.003155
vn 0.000000 -1.000000 0.000000
vn 0.000000 -1.000000 0.000000
vn -0.000815 -0.999995 -0.003155
vn 0.000000 -1.000000 0.000000
vn 0.000000 -1.000000 0.000000
vn -0.000815 -0.999995 -0.003155
vn 0.000000 -1.000000 0.000000
vn 0.000000 -1.000000 0.000000
vn -0.000815 -0.999995 -0.003155
vn 0.000000 -1.000000 0.000000
vn 0.000000 -1.000000 0.000000
vn -0.000815 -0.999995 -0.003155
vn -0.000050 -1.000000 -0.000037
vn 0.000000 -1.000000 0.000000
vn -0.000815 -0.999995 -0.003155
vn -0.015018 -0.999875 -0.004918
vn -0.000050 -1.000000 -0.000037
vn -0.000815 -0.999995 -0.003155
vn -0.031634 -0.999453 -0.009605
vn -0.015018 -0.999875 -0.004918
vn -0.000815 -0.999995 -0.003155
vn 0.002953 -0.999765 -0.021466
vn -0.031634 -0.999453 -0.009605
vn -0.000815 -0.999995 -0.003155
vn 0.023828 -0.999479 -0.021752
vn 0.002953 -0.999765 -0.021466
vn -0.000815 -0.999995 -0.003155
vn 0.003460 -0.999983 -0.004776
vn 0.023828 -0.999479 -0.021752
vn -0.000815 -0.999995 -0.003155
vn 0.000003 -1.000000 -0.000012
vn 0.003460 -0.999983 -0.004776
vn -0.000815 -0.999995 -0.003155
vn 0.000000 -1.000000 0.000000
vn 0.000003 -1.000000 -0.000012
vn -0.000815 -0.999995 -0.003155
vn 0.000000 -1.000000 0.000000
vn 0.000000 -1.000000 0.000000
vn -0.000815 -0.999995 -0.003155
vn 0.007826 0.999966 -0.002540
vn 0.006657 0.999966 -0.004834
vn 0.002714 0.999970 -0.007236
vn 0.006657 0.999966 -0.004834
vn 0.011314 0.999934 -0.001949
vn 0.002714 0.999970 -0.007236
vn 0.011314 0.999934 -0.001949
vn 0.001013 0.999995 -0.003129
vn 0.002714 0.999970 -0.007236
vn 0.001013 0.999995 -0.003129
vn -0.001526 0.999965 -0.008224
vn 0.002714 0.999970 -0.007236
vn -0.001526 0.999965 -0.008224
vn -0.001257 0.999991 -0.004027
vn 0.002714 0.999970 -0.007236
vn -0.001257 0.999991 -0.004027
vn -0.010075 0.999945 -0.002813
vn 0.002714 0.999970 -0.007236
vn -0.010075 0.999945 -0.002813
vn -0.006686 0.999966 -0.004796
vn 0.002714 0.999970 -0.007236
vn -0.006686 0.999966 -0.004796
vn -0.007826 0.999966 -0.002542
vn 0.002714 0.999970 -0.007236
vn -0.007826 0.999966 -0.002542
vn -0.008228 0.999966 -0.000000
vn 0.002714 0.999970 -0.007236
vn -0.008228 0.999966 -0.000000
vn -0.008853 0.999961 -0.000618
vn 0.002714 0.999970 -0.007236
vn -0.008853 0.999961 -0.000618
vn -0.023439 0.999489 -0.021712
vn 0.002714 0.999970 -0.007236
vn -0.023439 0.999489 -0.021712
vn -0.047779 0.997709 -0.047896
vn 0.002714 0.999970 -0.007236
vn -0.047779 0.997709 -0.047896
vn 0.005006 0.999387 -0.034647
vn 0.002714 0.999970 -0.007236
vn 0.005006 0.999387 -0.034647
vn 0.068559 0.997546 -0.014164
vn 0.002714 0.999970 -0.007236
vn 0.068559 0.997546 -0.014164
vn 0.038336 0.999258 -0.003824
vn 0.002714 0.999970 -0.007236
vn 0.038336 0.999258 -0.003824
vn 0.004855 0.999966 0.006641
vn 0.002714 0.999970 -0.007236
vn 0.004855 0.999966 0.006641
vn 0.006657 0.999966 0.004834
vn 0.002714 0.999970 -0.007236
vn 0.006657 0.999966 0.004834
vn 0.007826 0.999966 0.002540
vn 0.002714 0.999970 -0.007236
vn 0.007826 0.999966 0.002540
vn 0.008228 0.999966 0.000000
vn 0.002714 0.999970 -0.007236
vn 0.008228 0.999966 0.000000
vn 0.007826 0.999966 -0.002540
vn 0.002714 0.999970 -0.007236
s off
g body:pCylinder1
usemtl body:initialShadingGroup
f 1/1/1 2/2/2 22/3/3 21/4/4
f 2/2/5 3/5/6 23/6/7 22/3/8
f 3/5/9 4/7/10 24/8/11 23/6/12
f 4/7/13 5/9/14 25/10/15 24/8/16
f 5/9/17 6/11/18 26/12/19 25/10/20
f 6/11/21 7/13/22 27/14/23 26/12/24
f 7/13/25 8/15/26 28/16/27 27/14/28
f 8/15/29 9/17/30 29/18/31 28/16/32
f 9/17/33 10/19/34 30/20/35 29/18/36
f 10/19/37 11/21/38 31/22/39 30/20/40
f 11/21/41 12/23/42 32/24/43 31/22/44
f 12/23/45 13/25/46 33/26/47 32/24/48
f 13/25/49 14/27/50 34/28/51 33/26/52
f 14/27/53 15/29/54 35/30/55 34/28/56
f 15/29/57 16/31/58 36/32/59 35/30/60
f 16/31/61 17/33/62 37/34/63 36/32/64
f 17/33/65 18/35/66 38/36/67 37/34/68
f 18/35/69 19/37/70 39/38/71 38/36/72
f 19/37/73 20/39/74 40/40/75 39/38/76
f 20/39/77 1/41/78 21/42/79 40/40/80
f 2/43/81 1/44/82 41/45/83
f 3/46/84 2/43/85 41/45/86
f 4/47/87 3/46/88 41/45/89
f 5/48/90 4/47/91 41/45/92
f 6/49/93 5/48/94 41/45/95
f 7/50/96 6/49/97 41/45/98
f 8/51/99 7/50/100 41/45/101
f 9/52/102 8/51/103 41/45/104
f 10/53/105 9/52/106 41/45/107
f 11/54/108 10/53/109 41/45/110
f 12/55/111 11/54/112 41/45/113
f 13/56/114 12/55/115 41/45/116
f 14/57/117 13/56/118 41/45/119
f 15/58/120 14/57/121 41/45/122
f 16/59/123 15/58/124 41/45/125
f 17/60/126 16/59/127 41/45/128
f 18/61/129 17/60/130 41/45/131
f 19/62/132 18/61/133 41/45/134
f 20/63/135 19/62/136 41/45/137
f 1/44/138 20/63/139 41/45/140
f 21/64/141 22/65/142 42/66/143
f 22/65/144 23/67/145 42/66/146
f 23/67/147 24/68/148 42/66/149
f 24/68/150 25/69/151 42/66/152
f 25/69/153 26/70/154 42/66/155
f 26/70/156 27/71/157 42/66/158
f 27/71/159 28/72/160 42/66/161
f 28/72/162 29/73/163 42/66/164
f 29/73/165 30/74/166 42/66/167
f 30/74/168 31/75/169 42/66/170
f 31/75/171 32/76/172 42/66/173
f 32/76/174 33/77/175 42/66/176
f 33/77/177 34/78/178 42/66/179
f 34/78/180 35/79/181 42/66/182
f 35/79/183 36/80/184 42/66/185
f 36/80/186 37/81/187 42/66/188
f 37/81/189 38/82/190 42/66/191
f 38/82/192 39/83/193 42/66/194
f 39/83/195 40/84/196 42/66/197
f 40/84/198 21/64/199 42/66/200
