# This file uses centimeters as units for non-parametric coordinates.

mtllib MikuRightThigh.mtl
g default
v 5.412056 -17.410691 -6.223282
v -0.367545 -15.371293 -8.048883
v 5.401855 -15.400985 -5.895883
v -0.376744 -17.426095 -8.059083
v 0.323254 -15.371293 9.663314
v -7.366844 -17.056687 2.961815
v 0.363154 -16.834588 9.828116
v -7.207244 -15.371293 2.957716
v -6.836742 -17.377990 -3.703984
v -5.943445 -15.371293 -4.443784
v 7.243755 -17.203988 -0.085584
v 5.401855 -15.400985 -5.895883
v 7.411555 -15.371293 0.123116
v 5.412056 -17.410691 -6.223282
v -0.376744 -17.426095 -8.059083
v 5.892954 -15.371293 8.005616
v 5.908354 -16.912392 8.196918
v -0.367545 -15.371293 -8.048883
v 5.401855 -15.400985 -5.895883
v 7.332755 -3.113305 0.537616
v 7.411555 -15.371293 0.123116
v -0.036944 -1.074891 -8.831683
v -0.367545 -15.371293 -8.048883
v -5.943445 -15.371293 -4.443784
v -5.727544 1.018806 -5.922484
v -7.655445 0.816100 2.606715
v -7.207244 -15.371293 2.957716
v 6.470156 -2.182099 -7.831882
v -6.836742 -17.377990 -3.703984
v -0.962045 -38.198990 -5.088483
v -4.520043 -42.350388 1.306115
v -7.366844 -17.056687 2.961815
v -1.350946 -40.406197 6.580115
v 5.908354 -16.912392 8.196918
v 6.439455 -34.445496 2.140116
v 7.243755 -17.203988 -0.085584
v 6.439455 -34.445496 2.140116
v 3.727755 -38.098687 -4.815283
v 7.243755 -17.203988 -0.085584
v 0.363154 -16.834588 9.828116
v 2.471055 -40.598588 7.180816
v -0.376744 -17.426095 -8.059083
v 5.412056 -17.410691 -6.223282
v 6.678855 -42.883591 1.144417
v 4.011155 -44.107392 -5.053682
v -1.516645 -44.427689 -5.164184
v 6.678855 -42.883591 1.144417
v -1.253644 -41.483689 -4.857184
v 3.878156 -41.291291 -4.672983
v 2.809855 -44.663094 7.119416
v -1.673246 -44.525994 6.405115
v 5.892954 -15.371293 8.005616
v 7.332755 -3.113305 0.537616
v 3.989655 1.995002 6.846216
v 0.323254 -15.371293 9.663314
v -7.655445 0.816100 2.606715
v -7.207244 -15.371293 2.957716
v -0.974346 1.566207 8.807817
v 7.411555 -15.371293 0.123116
v 3.989655 1.995002 6.846216
vt 0.730600 0.947400
vt 0.778500 0.985400
vt 0.730800 0.985400
vt 0.780000 0.947400
vt 0.791300 0.984300
vt 0.877500 0.947400
vt 0.791500 0.947400
vt 0.877300 0.984300
vt 0.909600 0.947400
vt 0.909600 0.984400
vt 0.690400 0.947400
vt 0.644300 0.984400
vt 0.690500 0.984300
vt 0.644400 0.947400
vt 0.982400 0.947400
vt 0.753000 0.984300
vt 0.753000 0.947400
vt 0.753000 0.947400
vt 0.753000 0.947400
vt 0.753000 0.984300
vt 0.982700 0.984400
vt 0.753000 0.947400
vt 0.976900 0.010100
vt 0.981300 0.045100
vt 0.981800 0.010100
vt 0.955000 0.049400
vt 0.955800 0.010100
vt 0.940800 0.010100
vt 0.940800 0.052800
vt 0.937500 0.052100
vt 0.937700 0.010100
vt 0.976600 0.045900
vt 0.976600 0.045900
vt 0.350300 0.968800
vt 0.439800 0.767200
vt 0.305400 0.726200
vt 0.350300 0.968800
vt 0.305400 0.726200
vt 0.286300 0.968800
vt 0.305400 0.726200
vt 0.201000 0.747900
vt 0.286300 0.968800
vt 0.095900 0.968800
vt 0.017900 0.799000
vt 0.017900 0.968800
vt 0.596900 0.799000
vt 0.499200 0.765900
vt 0.596900 0.968800
vt 0.157900 0.968800
vt 0.127100 0.747900
vt 0.095900 0.968800
vt 0.127100 0.747900
vt 0.017900 0.799000
vt 0.095900 0.968800
vt 0.286300 0.968800
vt 0.201000 0.747900
vt 0.157900 0.968800
vt 0.201000 0.747900
vt 0.127100 0.747900
vt 0.157900 0.968800
vt 0.439800 0.767200
vt 0.442200 0.968800
vt 0.439800 0.767200
vt 0.350300 0.968800
vt 0.442200 0.968800
vt 0.510500 0.968800
vt 0.442200 0.968800
vt 0.510500 0.968800
vt 0.127100 0.747900
vt 0.017900 0.715800
vt 0.017900 0.799000
vt 0.596900 0.715800
vt 0.305400 0.726200
vt 0.439800 0.767200
vt 0.424400 0.717900
vt 0.439800 0.767200
vt 0.514200 0.717500
vt 0.201000 0.747900
vt 0.116200 0.680600
vt 0.127100 0.747900
vt 0.116200 0.680600
vt 0.017900 0.715800
vt 0.127100 0.747900
vt 0.116200 0.680600
vt 0.201000 0.747900
vt 0.213300 0.680600
vt 0.201000 0.747900
vt 0.305400 0.726200
vt 0.596900 0.715800
vt 0.439800 0.767200
vt 0.513800 0.663300
vt 0.424400 0.662500
vt 0.424400 0.662500
vt 0.305400 0.726200
vt 0.596900 0.715800
vt 0.513800 0.663300
vt 0.513800 0.663300
vt 0.876900 0.010100
vt 0.873500 0.048800
vt 0.877700 0.053700
vt 0.892900 0.010100
vt 0.914700 0.055900
vt 0.914500 0.010100
vt 0.896700 0.052900
vt 0.872500 0.010100
vt 0.880800 0.060400
vn 0.325268 0.078212 -0.942382
vn 0.325268 0.078212 -0.942382
vn 0.346221 0.152557 -0.925666
vn 0.325268 0.078212 -0.942382
vn 0.325268 0.078212 -0.942382
vn 0.302283 0.003378 -0.953212
vn -0.217935 0.104733 0.970327
vn -0.852095 0.082370 0.516864
vn -0.218300 0.103336 0.970395
vn -0.852095 0.082370 0.516864
vn -0.217935 0.104733 0.970327
vn -0.963345 0.190924 0.188451
vn -0.908507 0.143189 -0.392572
vn -0.963345 0.190924 0.188451
vn -0.738116 0.110369 -0.665585
vn 0.987832 -0.036763 -0.151119
vn 0.953289 0.000446 -0.302060
vn 0.998996 -0.043165 0.012001
vn 0.953289 0.000446 -0.302060
vn 0.987832 -0.036763 -0.151119
vn 0.956482 0.051640 -0.287186
vn -0.908507 0.143189 -0.392572
vn -0.738116 0.110369 -0.665585
vn -0.550966 -0.024990 -0.834153
vn 0.739574 0.090188 0.667006
vn 0.745311 0.047459 0.665026
vn 0.998996 -0.043165 0.012001
vn 0.998996 -0.043165 0.012001
vn 0.745311 0.047459 0.665026
vn 0.987832 -0.036763 -0.151119
vn -0.217935 0.104733 0.970327
vn 0.745311 0.047459 0.665026
vn 0.739574 0.090188 0.667006
vn -0.550966 -0.024990 -0.834153
vn -0.738116 0.110369 -0.665585
vn -0.542938 0.006599 -0.839747
vn -0.217935 0.104733 0.970327
vn -0.218300 0.103336 0.970395
vn 0.745311 0.047459 0.665026
vn -0.963345 0.190924 0.188451
vn -0.908507 0.143189 -0.392572
vn -0.852095 0.082370 0.516864
vn 0.714087 -0.086655 -0.694673
vn 0.975522 -0.040090 -0.216216
vn 0.948365 0.016807 -0.316735
vn -0.231096 -0.222106 -0.947240
vn 0.714087 -0.086655 -0.694673
vn -0.108472 -0.051849 -0.992746
vn -0.815981 -0.039520 -0.576726
vn -0.787529 0.040297 -0.614959
vn -0.231096 -0.222106 -0.947240
vn -0.972624 0.113968 -0.202517
vn -0.815981 -0.039520 -0.576726
vn -0.985262 -0.030928 -0.168233
vn 0.714087 -0.086655 -0.694673
vn 0.478100 -0.377133 -0.793215
vn 0.975522 -0.040090 -0.216216
vn 0.478100 -0.377133 -0.793215
vn 0.714087 -0.086655 -0.694673
vn -0.231096 -0.222106 -0.947240
vn -0.815981 -0.039520 -0.576726
vn -0.231096 -0.222106 -0.947240
vn -0.108472 -0.051849 -0.992746
vn -0.787529 0.040297 -0.614959
vn -0.815981 -0.039520 -0.576726
vn -0.972624 0.113968 -0.202517
vn -0.839746 -0.142004 -0.524081
vn -0.394045 -0.095015 -0.914167
vn -0.999868 -0.013993 0.008306
vn -0.839746 -0.142004 -0.524081
vn -0.999868 -0.013993 0.008306
vn -0.892703 -0.104483 0.438366
vn -0.999868 -0.013993 0.008306
vn -0.511016 -0.057496 0.857646
vn -0.892703 -0.104483 0.438366
vn 0.792745 -0.094315 0.602213
vn 0.903644 -0.073761 0.421886
vn 0.986791 -0.025379 0.159995
vn 0.932831 -0.006527 -0.360254
vn 0.686899 -0.059809 -0.724287
vn 0.948876 -0.091272 -0.302164
vn -0.197170 -0.094490 0.975805
vn 0.473864 -0.070008 0.877811
vn 0.792745 -0.094315 0.602213
vn 0.473864 -0.070008 0.877811
vn 0.903644 -0.073761 0.421886
vn 0.792745 -0.094315 0.602213
vn -0.892703 -0.104483 0.438366
vn -0.511016 -0.057496 0.857646
vn -0.197170 -0.094490 0.975805
vn -0.511016 -0.057496 0.857646
vn 0.473864 -0.070008 0.877811
vn -0.197170 -0.094490 0.975805
vn 0.686899 -0.059809 -0.724287
vn -0.394045 -0.095015 -0.914167
vn -0.069812 -0.119892 -0.990329
vn -0.394045 -0.095015 -0.914167
vn -0.839746 -0.142004 -0.524081
vn -0.069812 -0.119892 -0.990329
vn 0.948876 -0.091272 -0.302164
vn 0.686899 -0.059809 -0.724287
vn 0.710201 -0.105196 -0.696095
vn 0.686899 -0.059809 -0.724287
vn -0.069812 -0.119892 -0.990329
vn 0.710201 -0.105196 -0.696095
vn 0.473864 -0.070008 0.877811
vn 0.834320 -0.051752 0.548845
vn 0.903644 -0.073761 0.421886
vn 0.926411 0.047804 -0.373467
vn 0.686899 -0.059809 -0.724287
vn 0.932831 -0.006527 -0.360254
vn -0.999868 -0.013993 0.008306
vn -0.394045 -0.095015 -0.914167
vn -0.396037 0.078956 -0.914834
vn -0.394045 -0.095015 -0.914167
vn 0.451989 0.033051 -0.891411
vn -0.396037 0.078956 -0.914834
vn -0.511016 -0.057496 0.857646
vn 0.287473 -0.090774 0.953478
vn 0.473864 -0.070008 0.877811
vn 0.287473 -0.090774 0.953478
vn 0.834320 -0.051752 0.548845
vn 0.473864 -0.070008 0.877811
vn 0.287473 -0.090774 0.953478
vn -0.511016 -0.057496 0.857646
vn -0.496969 -0.130418 0.857912
vn -0.511016 -0.057496 0.857646
vn -0.999868 -0.013993 0.008306
vn -0.496969 -0.130418 0.857912
vn 0.926411 0.047804 -0.373467
vn 0.451989 0.033051 -0.891411
vn 0.686899 -0.059809 -0.724287
vn 0.451989 0.033051 -0.891411
vn -0.394045 -0.095015 -0.914167
vn 0.686899 -0.059809 -0.724287
vn 0.438100 0.136480 -0.888505
vn -0.512872 0.156530 -0.844074
vn -0.396037 0.078956 -0.914834
vn -0.512872 0.156530 -0.844074
vn -0.999868 -0.013993 0.008306
vn -0.396037 0.078956 -0.914834
vn 0.926411 0.047804 -0.373467
vn 0.438100 0.136480 -0.888505
vn 0.451989 0.033051 -0.891411
vn 0.438100 0.136480 -0.888505
vn -0.396037 0.078956 -0.914834
vn 0.451989 0.033051 -0.891411
vn 0.716252 0.083785 0.692794
vn 0.955473 0.063351 0.288196
vn 0.915121 0.125866 0.383029
vn -0.398763 0.019901 0.916838
vn -0.697969 0.089271 0.710542
vn -0.665017 -0.002219 0.746825
vn -0.398763 0.019901 0.916838
vn -0.085698 0.098969 0.991394
vn -0.697969 0.089271 0.710542
vn 0.955473 0.063351 0.288196
vn 0.716252 0.083785 0.692794
vn 0.981943 -0.000085 0.189176
vn -0.085698 0.098969 0.991394
vn 0.716252 0.083785 0.692794
vn 0.354649 0.130081 0.925907
vn -0.085698 0.098969 0.991394
vn -0.398763 0.019901 0.916838
vn 0.716252 0.083785 0.692794
s off
g MikuRightThigh:polySurface6
usemtl MikuRightThigh:body
f 1/1/1 2/2/2 3/3/3
f 2/2/4 1/1/5 4/4/6
f 5/5/7 6/6/8 7/7/9
f 6/6/10 5/5/11 8/8/12
f 9/9/13 8/8/14 10/10/15
f 11/11/16 12/12/17 13/13/18
f 12/12/19 11/11/20 14/14/21
f 9/9/22 10/10/23 15/15/24
f 16/16/25 17/17/26 13/13/27
f 13/13/28 17/18/29 11/11/30
f 5/5/31 17/19/32 16/20/33
f 15/15/34 10/10/35 18/21/36
f 5/5/37 7/7/38 17/22/39
f 8/8/40 9/9/41 6/6/42
f 19/23/43 20/24/44 21/25/45
f 22/26/46 19/23/47 23/27/48
f 24/28/49 25/29/50 22/26/51
f 26/30/52 24/28/53 27/31/54
f 19/23/55 28/32/56 20/24/57
f 28/33/58 19/23/59 22/26/60
f 24/28/61 22/26/62 23/27/63
f 25/29/64 24/28/65 26/30/66
f 29/34/67 30/35/68 31/36/69
f 29/37/70 31/38/71 32/39/72
f 31/40/73 33/41/74 32/42/75
f 34/43/76 35/44/77 36/45/78
f 37/46/79 38/47/80 39/48/81
f 40/49/82 41/50/83 34/51/84
f 41/52/85 35/53/86 34/54/87
f 32/55/88 33/56/89 40/57/90
f 33/58/91 41/59/92 40/60/93
f 38/47/94 30/61/95 42/62/96
f 30/63/97 29/64/98 42/65/99
f 39/48/100 38/47/101 43/66/102
f 38/47/103 42/67/104 43/68/105
f 41/69/106 47/70/107 35/71/108
f 44/72/109 38/47/110 37/46/111
f 31/73/112 30/74/113 48/75/114
f 30/76/115 49/77/116 48/75/117
f 33/78/118 50/79/119 41/80/120
f 50/81/121 47/82/122 41/83/123
f 50/84/124 33/85/125 51/86/126
f 33/87/127 31/88/128 51/86/129
f 44/89/130 49/77/131 38/47/132
f 49/77/133 30/90/134 38/47/135
f 45/91/136 46/92/137 48/75/138
f 46/93/139 31/94/140 48/75/141
f 44/95/142 45/96/143 49/77/144
f 45/97/145 48/75/146 49/77/147
f 52/98/148 53/99/149 54/100/150
f 55/101/151 56/102/152 57/103/153
f 55/101/154 58/104/155 56/102/156
f 53/99/157 52/98/158 59/105/159
f 58/104/160 52/98/161 60/106/162
f 58/104/163 55/101/164 52/98/165
