# This file uses centimeters as units for non-parametric coordinates.

mtllib body.mtl
g default
v 33.441407 -21.254850 -10.865771
v 28.446961 -21.254850 -20.667925
v 20.667925 -21.254850 -28.446958
v 10.865770 -21.254850 -33.441403
v 0.000000 -21.254850 -35.162370
v -10.865770 -21.254850 -33.441401
v -20.667921 -21.254850 -28.446952
v -28.446950 -21.254850 -20.667919
v -33.441395 -21.254850 -10.865767
v -35.162362 -21.254850 0.000000
v -33.441395 -21.254850 10.865767
v -28.446948 -21.254850 20.667917
v -20.667917 -21.254850 28.446946
v -10.865337 -21.255668 33.442478
v 0.064849 -21.459413 35.453767
v 11.009496 -21.671466 34.029776
v 20.699394 -21.331319 28.552832
v 28.447032 -21.255022 20.668141
v 33.441386 -21.254850 10.865765
v 35.162353 -21.254850 0.000000
v 33.441407 49.069856 -10.865771
v 28.446961 49.069856 -20.667925
v 20.667925 49.069856 -28.446958
v 10.871154 49.173244 -33.543382
v 0.000000 49.069856 -35.162370
v -10.873412 49.153761 -33.512938
v -20.667889 49.070477 -28.447566
v -28.446950 49.069856 -20.667919
v -33.441395 49.069856 -10.865767
v -35.162362 49.069856 0.000000
v -33.441395 49.069856 10.865767
v -28.467864 49.112817 20.721036
v -20.839721 49.475791 28.924699
v -11.360356 49.991783 34.580385
v -0.346243 49.559763 35.773982
v 10.865684 49.070141 33.441797
v 20.667912 49.069856 28.446944
v 28.446942 49.069856 20.667915
v 33.441386 49.069856 10.865765
v 35.162353 49.069856 0.000000
v 0.000000 -21.254850 0.000000
v -0.000005 49.242440 0.000090
vt 0.648603 0.107966
vt 0.626409 0.064408
vt 0.591842 0.029841
vt 0.548284 0.007647
vt 0.500000 -0.000000
vt 0.451716 0.007647
vt 0.408159 0.029841
vt 0.373591 0.064409
vt 0.351397 0.107966
vt 0.343750 0.156250
vt 0.351397 0.204534
vt 0.373591 0.248091
vt 0.408159 0.282659
vt 0.451716 0.304853
vt 0.500000 0.312500
vt 0.548284 0.304853
vt 0.591841 0.282659
vt 0.626409 0.248091
vt 0.648603 0.204534
vt 0.656250 0.156250
vt 0.375000 0.312500
vt 0.387500 0.312500
vt 0.400000 0.312500
vt 0.412500 0.312500
vt 0.425000 0.312500
vt 0.437500 0.312500
vt 0.450000 0.312500
vt 0.462500 0.312500
vt 0.475000 0.312500
vt 0.487500 0.312500
vt 0.500000 0.312500
vt 0.512500 0.312500
vt 0.525000 0.312500
vt 0.537500 0.312500
vt 0.550000 0.312500
vt 0.562500 0.312500
vt 0.575000 0.312500
vt 0.587500 0.312500
vt 0.600000 0.312500
vt 0.612500 0.312500
vt 0.625000 0.312500
vt 0.375000 0.688440
vt 0.387500 0.688440
vt 0.400000 0.688440
vt 0.412500 0.688440
vt 0.425000 0.688440
vt 0.437500 0.688440
vt 0.450000 0.688440
vt 0.462500 0.688440
vt 0.475000 0.688440
vt 0.487500 0.688440
vt 0.500000 0.688440
vt 0.512500 0.688440
vt 0.525000 0.688440
vt 0.537500 0.688440
vt 0.550000 0.688440
vt 0.562500 0.688440
vt 0.575000 0.688440
vt 0.587500 0.688440
vt 0.600000 0.688440
vt 0.612500 0.688440
vt 0.625000 0.688440
vt 0.648603 0.795466
vt 0.626409 0.751908
vt 0.591842 0.717341
vt 0.548284 0.695147
vt 0.500000 0.687500
vt 0.451716 0.695147
vt 0.408159 0.717341
vt 0.373591 0.751909
vt 0.351397 0.795466
vt 0.343750 0.843750
vt 0.351397 0.892034
vt 0.373591 0.935591
vt 0.408159 0.970159
vt 0.451716 0.992353
vt 0.500000 1.000000
vt 0.548284 0.992353
vt 0.591841 0.970159
vt 0.626409 0.935591
vt 0.648603 0.892034
vt 0.656250 0.843750
vt 0.500000 0.150000
vt 0.500000 0.837500
vn 0.951057 0.000000 -0.309016
vn 0.809017 0.000000 -0.587785
vn 0.809017 0.000000 -0.587785
vn 0.951057 0.000000 -0.309016
vn 0.589329 -0.000335 -0.807893
vn 0.588954 -0.000336 -0.808167
vn 0.309053 -0.000701 -0.951044
vn 0.308982 -0.000701 -0.951067
vn -0.000689 -0.000624 -1.000000
vn -0.000602 -0.000624 -1.000000
vn -0.309025 -0.000502 -0.951054
vn -0.308988 -0.000502 -0.951066
vn -0.588907 -0.000245 -0.808201
vn -0.588600 -0.000246 -0.808425
vn -0.809021 -0.000001 -0.587779
vn -0.809020 -0.000001 -0.587781
vn -0.951057 0.000000 -0.309017
vn -0.951057 0.000000 -0.309017
vn -1.000000 0.000000 0.000000
vn -1.000000 0.000000 0.000000
vn -0.951307 -0.000154 0.308246
vn -0.951247 -0.000154 0.308432
vn -0.814501 -0.001979 0.580159
vn -0.813455 -0.001999 0.581625
vn -0.608612 -0.007994 0.793427
vn -0.605281 -0.008115 0.795970
vn -0.317257 -0.011831 0.948266
vn -0.318145 -0.011834 0.947968
vn 0.014551 -0.004186 0.999885
vn 0.007390 -0.004498 0.999963
vn 0.322305 0.003750 0.946629
vn 0.320943 0.003739 0.947091
vn 0.596444 0.002868 0.802650
vn 0.597944 0.002841 0.801533
vn 0.809973 0.000351 0.586467
vn 0.810174 0.000350 0.586189
vn 0.951057 0.000001 0.309014
vn 0.951057 0.000001 0.309014
vn 1.000000 0.000000 0.000001
vn 1.000000 0.000000 0.000001
vn 0.000000 -1.000000 0.000000
vn 0.000000 -1.000000 0.000000
vn -0.000486 -0.999998 -0.001883
vn 0.000000 -1.000000 0.000000
vn 0.000000 -1.000000 0.000000
vn 0.000000 -1.000000 0.000000
vn 0.000000 -1.000000 0.000000
vn 0.000000 -1.000000 0.000000
vn 0.000000 -1.000000 0.000000
vn 0.000000 -1.000000 0.000000
vn 0.000000 -1.000000 0.000000
vn 0.000000 -1.000000 0.000000
vn 0.000000 -1.000000 0.000000
vn -0.000030 -1.000000 -0.000022
vn -0.008959 -0.999956 -0.002935
vn -0.018876 -0.999805 -0.005734
vn 0.001762 -0.999916 -0.012812
vn 0.014218 -0.999815 -0.012985
vn 0.002064 -0.999994 -0.002850
vn 0.000002 -1.000000 -0.000007
vn 0.000000 -1.000000 0.000000
vn 0.004668 0.999988 -0.001516
vn 0.003971 0.999988 -0.002885
vn 0.001619 0.999989 -0.004318
vn 0.006749 0.999977 -0.001163
vn 0.000604 0.999998 -0.001867
vn -0.000910 0.999987 -0.004908
vn -0.000750 0.999997 -0.002403
vn -0.006010 0.999981 -0.001679
vn -0.003988 0.999988 -0.002862
vn -0.004668 0.999988 -0.001517
vn -0.004908 0.999988 -0.000000
vn -0.005281 0.999986 -0.000369
vn -0.013986 0.999818 -0.012961
vn -0.028542 0.999183 -0.028625
vn 0.002987 0.999782 -0.020684
vn 0.040960 0.999125 -0.008466
vn 0.022878 0.999736 -0.002283
vn 0.002896 0.999988 0.003963
vn 0.003971 0.999988 0.002885
vn 0.004668 0.999988 0.001516
vn 0.004908 0.999988 -0.000000
s 1
g pCylinder1
usemtl initialShadingGroup
f 1/21/1 2/22/2 22/43/3 21/42/4
f 2/22/2 3/23/5 23/44/6 22/43/3
f 3/23/5 4/24/7 24/45/8 23/44/6
f 4/24/7 5/25/9 25/46/10 24/45/8
f 5/25/9 6/26/11 26/47/12 25/46/10
f 6/26/11 7/27/13 27/48/14 26/47/12
f 7/27/13 8/28/15 28/49/16 27/48/14
f 8/28/15 9/29/17 29/50/18 28/49/16
f 9/29/17 10/30/19 30/51/20 29/50/18
f 10/30/19 11/31/21 31/52/22 30/51/20
f 11/31/21 12/32/23 32/53/24 31/52/22
f 12/32/23 13/33/25 33/54/26 32/53/24
f 13/33/25 14/34/27 34/55/28 33/54/26
f 14/34/27 15/35/29 35/56/30 34/55/28
f 15/35/29 16/36/31 36/57/32 35/56/30
f 16/36/31 17/37/33 37/58/34 36/57/32
f 17/37/33 18/38/35 38/59/36 37/58/34
f 18/38/35 19/39/37 39/60/38 38/59/36
f 19/39/37 20/40/39 40/61/40 39/60/38
f 20/40/39 1/41/1 21/62/4 40/61/40
s 2
f 2/2/41 1/1/42 41/83/43
f 3/3/44 2/2/41 41/83/43
f 4/4/45 3/3/44 41/83/43
f 5/5/46 4/4/45 41/83/43
f 6/6/47 5/5/46 41/83/43
f 7/7/48 6/6/47 41/83/43
f 8/8/49 7/7/48 41/83/43
f 9/9/50 8/8/49 41/83/43
f 10/10/51 9/9/50 41/83/43
f 11/11/52 10/10/51 41/83/43
f 12/12/53 11/11/52 41/83/43
f 13/13/54 12/12/53 41/83/43
f 14/14/55 13/13/54 41/83/43
f 15/15/56 14/14/55 41/83/43
f 16/16/57 15/15/56 41/83/43
f 17/17/58 16/16/57 41/83/43
f 18/18/59 17/17/58 41/83/43
f 19/19/60 18/18/59 41/83/43
f 20/20/61 19/19/60 41/83/43
f 1/1/42 20/20/61 41/83/43
s 3
f 21/81/62 22/80/63 42/84/64
f 22/80/63 23/79/65 42/84/64
f 23/79/65 24/78/66 42/84/64
f 24/78/66 25/77/67 42/84/64
f 25/77/67 26/76/68 42/84/64
f 26/76/68 27/75/69 42/84/64
f 27/75/69 28/74/70 42/84/64
f 28/74/70 29/73/71 42/84/64
f 29/73/71 30/72/72 42/84/64
f 30/72/72 31/71/73 42/84/64
f 31/71/73 32/70/74 42/84/64
f 32/70/74 33/69/75 42/84/64
f 33/69/75 34/68/76 42/84/64
f 34/68/76 35/67/77 42/84/64
f 35/67/77 36/66/78 42/84/64
f 36/66/78 37/65/79 42/84/64
f 37/65/79 38/64/80 42/84/64
f 38/64/80 39/63/81 42/84/64
f 39/63/81 40/82/82 42/84/64
f 40/82/82 21/81/62 42/84/64
