# This file uses centimeters as units for non-parametric coordinates.

mtllib MikuLeftThigh.mtl
g default
v 0.218736 -15.659292 -7.910489
v -5.560864 -17.698690 -6.084890
v -5.550664 -15.688984 -5.757490
v 0.227934 -17.714094 -7.920689
v -6.827664 -43.171590 1.282809
v 1.202135 -40.694196 6.718510
v 7.218034 -17.344686 3.100210
v -0.511967 -17.122587 9.966509
v -6.827664 -43.171590 1.282809
v -2.619865 -40.886587 7.319208
v -6.057165 -17.200391 8.335309
v -6.588265 -34.733495 2.278509
v 0.813235 -38.486989 -4.950090
v 6.687933 -17.665989 -3.565589
v 4.371234 -42.638387 1.444510
v 0.227934 -17.714094 -7.920689
v -3.876564 -38.386686 -4.676890
v -6.588265 -34.733495 2.278509
v -7.392564 -17.491987 0.052809
v -7.392564 -17.491987 0.052809
v -5.560864 -17.698690 -6.084890
v -4.159964 -44.395391 -4.915290
v -4.026965 -41.579290 -4.534590
v 1.104835 -41.771688 -4.718790
v -2.958664 -44.951093 7.257809
v 1.524435 -44.813993 6.543509
v -0.472066 -15.659292 9.801708
v -0.511967 -17.122587 9.966509
v 7.218034 -17.344686 3.100210
v 6.687933 -17.665989 -3.565589
v 5.794635 -15.659292 -4.305389
v 7.058434 -15.659292 3.096111
v -7.560364 -15.659292 0.261509
v -6.057165 -17.200391 8.335309
v -6.041765 -15.659292 8.144008
v -7.392564 -17.491987 0.052809
v -5.550664 -15.688984 -5.757490
v -5.560864 -17.698690 -6.084890
v 0.227934 -17.714094 -7.920689
v 0.218736 -15.659292 -7.910489
v -7.481564 -3.401304 0.676009
v -5.550664 -15.688984 -5.757490
v -7.560364 -15.659292 0.261509
v -6.618964 -2.470098 -7.693490
v 5.794635 -15.659292 -4.305389
v 7.506635 0.528101 2.745111
v 7.058434 -15.659292 3.096111
v -0.111864 -1.362890 -8.693290
v 5.578735 0.730807 -5.784089
v 0.218736 -15.659292 -7.910489
v -6.041765 -15.659292 8.144008
v -7.481564 -3.401304 0.676009
v -7.560364 -15.659292 0.261509
v -4.138465 1.707003 6.984609
v 7.506635 0.528101 2.745111
v -0.472066 -15.659292 9.801708
v 7.058434 -15.659292 3.096111
v 0.825534 1.278208 8.946210
vt 0.778500 0.985400
vt 0.730600 0.947400
vt 0.730800 0.985400
vt 0.730600 0.947400
vt 0.778500 0.985400
vt 0.780000 0.947400
vt 0.201000 0.747900
vt 0.286300 0.968800
vt 0.157900 0.968800
vt 0.127100 0.747900
vt 0.095900 0.968800
vt 0.017900 0.799000
vt 0.439800 0.767200
vt 0.350300 0.968800
vt 0.305400 0.726200
vt 0.442200 0.968800
vt 0.499200 0.765900
vt 0.499200 0.765900
vt 0.596900 0.799000
vt 0.596900 0.968800
vt 0.017900 0.968800
vt 0.499200 0.765900
vt 0.510500 0.968800
vt 0.499200 0.765900
vt 0.596900 0.968800
vt 0.499200 0.765900
vt 0.596900 0.715800
vt 0.596900 0.799000
vt 0.017900 0.715800
vt 0.514200 0.717500
vt 0.424400 0.717900
vt 0.424400 0.717900
vt 0.116200 0.680600
vt 0.213300 0.680600
vt 0.213300 0.680600
vt 0.514200 0.717500
vt 0.499200 0.765900
vt 0.514200 0.717500
vt 0.499200 0.765900
vt 0.424400 0.717900
vt 0.513800 0.663300
vt 0.514200 0.717500
vt 0.514200 0.717500
vt 0.791300 0.984300
vt 0.791500 0.947400
vt 0.877500 0.947400
vt 0.909600 0.947400
vt 0.909600 0.984400
vt 0.877300 0.984300
vt 0.690500 0.984300
vt 0.753000 0.947400
vt 0.753000 0.984300
vt 0.690400 0.947400
vt 0.690500 0.984300
vt 0.644300 0.984400
vt 0.644300 0.984400
vt 0.644400 0.947400
vt 0.690400 0.947400
vt 0.909600 0.984400
vt 0.909600 0.947400
vt 0.982400 0.947400
vt 0.791300 0.984300
vt 0.877500 0.947400
vt 0.877300 0.984300
vt 0.690500 0.984300
vt 0.690400 0.947400
vt 0.791300 0.984300
vt 0.909600 0.984400
vt 0.982400 0.947400
vt 0.982700 0.984400
vt 0.791500 0.947400
vt 0.791300 0.984300
vt 0.909600 0.947400
vt 0.877300 0.984300
vt 0.877500 0.947400
vt 0.981300 0.045100
vt 0.976900 0.010100
vt 0.981800 0.010100
vt 0.976900 0.010100
vt 0.981300 0.045100
vt 0.976600 0.045900
vt 0.940800 0.010100
vt 0.937500 0.052100
vt 0.937700 0.010100
vt 0.940800 0.010100
vt 0.955000 0.049400
vt 0.940800 0.052800
vt 0.955000 0.049400
vt 0.955800 0.010100
vt 0.976900 0.010100
vt 0.976900 0.010100
vt 0.955000 0.049400
vt 0.955000 0.049400
vt 0.940800 0.010100
vt 0.955800 0.010100
vt 0.940800 0.010100
vt 0.940800 0.052800
vt 0.937500 0.052100
vt 0.876900 0.010100
vt 0.873500 0.048800
vt 0.872500 0.010100
vt 0.876900 0.010100
vt 0.880800 0.060400
vt 0.873500 0.048800
vt 0.914700 0.055900
vt 0.892900 0.010100
vt 0.914500 0.010100
vt 0.896700 0.052900
vt 0.892900 0.010100
vt 0.914700 0.055900
vt 0.896700 0.052900
vt 0.876900 0.010100
vt 0.892900 0.010100
vt 0.876900 0.010100
vt 0.896700 0.052900
vn -0.325268 0.078212 -0.942382
vn -0.325268 0.078212 -0.942382
vn -0.346221 0.152557 -0.925666
vn -0.325268 0.078212 -0.942382
vn -0.325268 0.078212 -0.942382
vn -0.302283 0.003378 -0.953212
vn 0.511016 -0.057496 0.857646
vn 0.892703 -0.104483 0.438366
vn 0.197170 -0.094490 0.975805
vn -0.473864 -0.070008 0.877811
vn -0.792745 -0.094315 0.602213
vn -0.903644 -0.073761 0.421886
vn -0.473864 -0.070008 0.877811
vn 0.197170 -0.094490 0.975805
vn -0.792745 -0.094315 0.602213
vn 0.394045 -0.095015 -0.914167
vn 0.839746 -0.142004 -0.524081
vn 0.999868 -0.013993 0.008306
vn 0.511016 -0.057496 0.857646
vn 0.197170 -0.094490 0.975805
vn -0.473864 -0.070008 0.877811
vn 0.511016 -0.057496 0.857646
vn 0.999868 -0.013993 0.008306
vn 0.892703 -0.104483 0.438366
vn 0.999868 -0.013993 0.008306
vn 0.839746 -0.142004 -0.524081
vn 0.892703 -0.104483 0.438366
vn 0.839746 -0.142004 -0.524081
vn 0.394045 -0.095015 -0.914167
vn 0.069812 -0.119892 -0.990329
vn 0.394045 -0.095015 -0.914167
vn -0.686899 -0.059809 -0.724288
vn 0.069812 -0.119892 -0.990329
vn -0.686899 -0.059809 -0.724288
vn -0.932831 -0.006527 -0.360254
vn -0.948876 -0.091272 -0.302164
vn -0.903644 -0.073761 0.421886
vn -0.792745 -0.094315 0.602213
vn -0.986791 -0.025379 0.159995
vn 0.069812 -0.119892 -0.990329
vn -0.686899 -0.059809 -0.724288
vn -0.710201 -0.105196 -0.696095
vn -0.686899 -0.059809 -0.724288
vn -0.948876 -0.091272 -0.302164
vn -0.710201 -0.105196 -0.696095
vn -0.686899 -0.059809 -0.724288
vn -0.926411 0.047804 -0.373468
vn -0.932831 -0.006527 -0.360254
vn -0.834321 -0.051752 0.548845
vn -0.473864 -0.070008 0.877811
vn -0.903644 -0.073761 0.421886
vn -0.451989 0.033051 -0.891411
vn 0.394045 -0.095015 -0.914167
vn 0.396037 0.078956 -0.914834
vn 0.394045 -0.095015 -0.914167
vn 0.999868 -0.013993 0.008306
vn 0.396037 0.078956 -0.914834
vn -0.834321 -0.051752 0.548845
vn -0.287473 -0.090774 0.953478
vn -0.473864 -0.070008 0.877811
vn -0.287473 -0.090774 0.953478
vn 0.511016 -0.057496 0.857646
vn -0.473864 -0.070008 0.877811
vn 0.999868 -0.013993 0.008306
vn 0.511016 -0.057496 0.857646
vn 0.496969 -0.130418 0.857912
vn 0.511016 -0.057496 0.857646
vn -0.287473 -0.090774 0.953478
vn 0.496969 -0.130418 0.857912
vn 0.394045 -0.095015 -0.914167
vn -0.451989 0.033051 -0.891411
vn -0.686899 -0.059809 -0.724288
vn -0.451989 0.033051 -0.891411
vn -0.926411 0.047804 -0.373468
vn -0.686899 -0.059809 -0.724288
vn 0.396037 0.078956 -0.914834
vn -0.438099 0.136480 -0.888506
vn -0.451989 0.033051 -0.891411
vn -0.438099 0.136480 -0.888506
vn -0.926411 0.047804 -0.373468
vn -0.451989 0.033051 -0.891411
vn 0.217934 0.104733 0.970328
vn 0.218300 0.103336 0.970395
vn 0.852095 0.082370 0.516864
vn 0.908507 0.143189 -0.392572
vn 0.738116 0.110369 -0.665585
vn 0.963345 0.190924 0.188451
vn -0.998996 -0.043165 0.012001
vn -0.745311 0.047459 0.665025
vn -0.739574 0.090188 0.667006
vn -0.987832 -0.036763 -0.151119
vn -0.998996 -0.043165 0.012001
vn -0.953289 0.000447 -0.302060
vn -0.953289 0.000447 -0.302060
vn -0.956482 0.051640 -0.287186
vn -0.987832 -0.036763 -0.151119
vn 0.738116 0.110369 -0.665585
vn 0.908507 0.143189 -0.392572
vn 0.550966 -0.024990 -0.834153
vn 0.217934 0.104733 0.970328
vn 0.852095 0.082370 0.516864
vn 0.963345 0.190924 0.188451
vn -0.745311 0.047459 0.665025
vn -0.998996 -0.043165 0.012001
vn -0.987832 -0.036763 -0.151119
vn -0.739574 0.090188 0.667006
vn -0.745311 0.047459 0.665025
vn 0.217934 0.104733 0.970328
vn 0.738116 0.110369 -0.665585
vn 0.550966 -0.024990 -0.834153
vn 0.542938 0.006599 -0.839747
vn 0.218300 0.103336 0.970395
vn 0.217934 0.104733 0.970328
vn -0.745311 0.047459 0.665025
vn 0.908507 0.143189 -0.392572
vn 0.963345 0.190924 0.188451
vn 0.852095 0.082370 0.516864
vn -0.975522 -0.040090 -0.216216
vn -0.714087 -0.086655 -0.694673
vn -0.948365 0.016807 -0.316735
vn -0.714087 -0.086655 -0.694673
vn -0.975522 -0.040090 -0.216216
vn -0.478100 -0.377133 -0.793216
vn 0.815981 -0.039520 -0.576726
vn 0.972624 0.113968 -0.202517
vn 0.985262 -0.030928 -0.168233
vn 0.815981 -0.039520 -0.576726
vn 0.231097 -0.222106 -0.947240
vn 0.787529 0.040297 -0.614959
vn 0.231097 -0.222106 -0.947240
vn 0.108472 -0.051850 -0.992746
vn -0.714087 -0.086655 -0.694673
vn -0.714087 -0.086655 -0.694673
vn -0.478100 -0.377133 -0.793216
vn 0.231097 -0.222106 -0.947240
vn 0.231097 -0.222106 -0.947240
vn 0.815981 -0.039520 -0.576726
vn 0.108472 -0.051850 -0.992746
vn 0.815981 -0.039520 -0.576726
vn 0.787529 0.040297 -0.614959
vn 0.972624 0.113968 -0.202517
vn -0.716252 0.083785 0.692794
vn -0.955474 0.063351 0.288196
vn -0.981943 -0.000085 0.189176
vn -0.716252 0.083785 0.692794
vn -0.582361 0.138379 0.801066
vn -0.955474 0.063351 0.288196
vn 0.697968 0.089271 0.710543
vn 0.398762 0.019901 0.916838
vn 0.665017 -0.002219 0.746825
vn 0.085698 0.098969 0.991394
vn 0.398762 0.019901 0.916838
vn 0.697968 0.089271 0.710543
vn 0.085698 0.098969 0.991394
vn -0.716252 0.083785 0.692794
vn 0.398762 0.019901 0.916838
vn -0.582361 0.138379 0.801066
vn -0.716252 0.083785 0.692794
vn 0.085698 0.098969 0.991394
s off
g MikuLeftThigh:polySurface9
usemtl MikuLeftThigh:body
f 1/1/1 2/2/2 3/3/3
f 2/4/4 1/5/5 4/6/6
f 6/7/7 7/8/8 8/9/9
f 10/10/10 11/11/11 12/12/12
f 10/10/13 8/9/14 11/11/15
f 13/13/16 14/14/17 15/15/18
f 6/7/19 8/9/20 10/10/21
f 6/7/22 15/15/23 7/8/24
f 15/15/25 14/14/26 7/8/27
f 14/14/28 13/13/29 16/16/30
f 13/13/31 17/17/32 16/16/33
f 17/18/34 18/19/35 19/20/36
f 12/12/37 11/11/38 20/21/39
f 16/16/40 17/22/41 21/23/42
f 17/24/43 19/25/44 21/23/45
f 17/26/46 9/27/47 18/28/48
f 5/29/49 10/10/50 12/12/51
f 23/30/52 13/13/53 24/31/54
f 13/13/55 15/15/56 24/32/57
f 5/29/58 25/33/59 10/10/60
f 25/33/61 6/7/62 10/10/63
f 15/15/64 6/7/65 26/34/66
f 6/7/67 25/33/68 26/35/69
f 13/13/70 23/36/71 17/37/72
f 23/38/73 9/27/74 17/39/75
f 24/40/76 22/41/77 23/42/78
f 22/41/79 9/27/80 23/43/81
f 27/44/82 28/45/83 29/46/84
f 30/47/85 31/48/86 32/49/87
f 33/50/88 34/51/89 35/52/90
f 36/53/91 33/54/92 37/55/93
f 37/56/94 38/57/95 36/58/96
f 31/59/97 30/60/98 39/61/99
f 27/62/100 29/63/101 32/64/102
f 34/51/103 33/65/104 36/66/105
f 35/52/106 34/51/107 27/67/108
f 31/68/109 39/69/110 40/70/111
f 28/71/112 27/72/113 34/51/114
f 30/73/115 32/74/116 29/75/117
f 41/76/118 42/77/119 43/78/120
f 42/79/121 41/80/122 44/81/123
f 45/82/124 46/83/125 47/84/126
f 45/85/127 48/86/128 49/87/129
f 48/88/130 50/89/131 42/90/132
f 42/91/133 44/81/134 48/92/135
f 48/93/136 45/94/137 50/95/138
f 45/96/139 49/97/140 46/98/141
f 51/99/142 52/100/143 53/101/144
f 51/102/145 54/103/146 52/104/147
f 55/105/148 56/106/149 57/107/150
f 58/108/151 56/109/152 55/110/153
f 58/111/154 51/112/155 56/113/156
f 54/103/157 51/114/158 58/115/159
